<?xml version="1.0" standalone="no"?>
<!DOCTYPE svg PUBLIC "-//W3C//DTD SVG 20010904//EN"
 "http://www.w3.org/TR/2001/REC-SVG-20010904/DTD/svg10.dtd">
<svg version="1.0" xmlns="http://www.w3.org/2000/svg"
 width="191.000000pt" height="191.000000pt" viewBox="0 0 191.000000 191.000000"
 preserveAspectRatio="xMidYMid meet">
<metadata>
Created by potrace 1.11, written by Peter Selinger 2001-2013
</metadata>
<g transform="translate(0.000000,191.000000) scale(0.100000,-0.100000)"
fill="#000000" stroke="none">
<path d="M988 1845 c-2 -1 -47 -5 -102 -9 -54 -3 -101 -8 -105 -10 -3 -2 -22
-7 -41 -10 -19 -3 -70 -17 -113 -31 -238 -77 -423 -227 -526 -425 -69 -132
-95 -244 -95 -400 0 -118 24 -262 54 -318 4 -10 14 -33 21 -52 23 -62 127
-206 191 -266 119 -109 264 -186 438 -230 62 -16 110 -19 275 -19 222 0 301
14 451 76 l74 31 0 135 0 135 -22 -16 c-92 -66 -221 -118 -331 -133 -96 -14
-257 -6 -347 16 -324 80 -520 320 -522 641 -3 388 292 646 743 652 65 1 104
-3 183 -18 158 -29 306 -118 411 -246 l30 -37 128 40 c70 22 127 46 127 52 -1
20 -64 106 -121 163 -137 141 -388 249 -624 270 -80 7 -174 12 -177 9z"/>
<path d="M1053 962 c-29 -3 -33 -7 -34 -35 -1 -37 -1 -135 0 -157 1 -13 46
-15 346 -14 l345 2 0 -344 0 -344 100 0 100 0 0 445 0 445 -162 0 c-90 1 -275
2 -413 3 -137 1 -265 1 -282 -1z"/>
</g>
</svg>
